HIERARCHY
ROOT mug2
{
	OFFSET 0.000000 0.000000 0.000000
	CHANNELS 6 Xposition Yposition Zposition Yrotation Xrotation Zrotation
	End Site
	{
		OFFSET 0.000000 0.000000 0.000000
	}
}
MOTION
Frames: 210
Frame Time: 0.008333334
1.328574 3.399913 3.364639 130.923100 4.899310 0.760370 
1.328543 3.400701 3.365322 130.856700 5.039567 0.717775 
1.329199 3.400882 3.365318 130.863100 5.055569 0.767160 
1.329961 3.401256 3.365382 130.856400 5.071295 0.686616 
1.330538 3.401235 3.365790 130.851700 5.090602 0.795333 
1.331562 3.401161 3.365654 130.900600 5.031555 0.817848 
1.331773 3.401431 3.365666 130.879700 5.049468 0.786710 
1.331250 3.401739 3.365690 130.838800 5.093809 0.765744 
1.330948 3.401497 3.365679 130.843200 5.075135 0.739644 
1.329956 3.401538 3.365737 130.844000 5.104893 0.829438 
1.329540 3.400896 3.365872 130.852400 5.066298 0.765006 
1.328512 3.400804 3.365650 130.861600 5.038702 0.743552 
1.328654 3.399697 3.365475 130.935400 4.911814 0.807654 
1.328056 3.399883 3.365046 130.916200 4.901580 0.770306 
1.327858 3.399849 3.364082 130.899600 4.897368 0.708456 
1.327947 3.399781 3.363861 130.892000 4.892725 0.714959 
1.328413 3.399546 3.363456 130.910700 4.873193 0.779359 
1.327550 3.400348 3.363362 130.840300 4.993826 0.744878 
1.327734 3.400404 3.363216 130.847800 4.999052 0.738958 
1.327521 3.400374 3.363121 130.837300 4.999506 0.745602 
1.326939 3.400806 3.363033 130.791300 5.024931 0.637609 
1.327876 3.399625 3.362994 130.890500 4.886253 0.733426 
1.325943 3.400705 3.363204 130.778900 5.025318 0.622512 
1.324528 3.401385 3.363023 130.735800 5.101883 0.642871 
1.324219 3.401119 3.363056 130.751500 5.078895 0.674669 
1.324057 3.401343 3.363495 130.747400 5.097425 0.566406 
1.323434 3.401612 3.363134 130.742400 5.135983 0.676517 
1.323352 3.401897 3.362967 130.708100 5.168769 0.612286 
1.323805 3.401918 3.362710 130.708100 5.173866 0.623223 
1.325024 3.401136 3.362807 130.743300 5.097911 0.632824 
1.325129 3.401474 3.362667 130.727600 5.128077 0.574657 
1.325402 3.401189 3.362570 130.747700 5.107525 0.636271 
1.325035 3.401691 3.362506 130.718500 5.141457 0.537172 
1.324454 3.401792 3.362219 130.708300 5.163167 0.604814 
1.323767 3.402266 3.362154 130.683900 5.207091 0.592362 
1.323616 3.402001 3.362319 130.702300 5.180306 0.625629 
1.323840 3.401589 3.362564 130.720200 5.126700 0.578731 
1.323819 3.401764 3.362623 130.711700 5.148999 0.582662 
1.323798 3.401939 3.362682 130.703300 5.171299 0.586589 
1.323778 3.402114 3.362741 130.694900 5.193598 0.590513 
1.324643 3.401253 3.362628 130.748200 5.088185 0.676565 
1.325015 3.401508 3.362942 130.723600 5.124011 0.578013 
1.324831 3.401637 3.363008 130.708600 5.131189 0.536227 
1.325526 3.400695 3.362909 130.770700 5.014441 0.615169 
1.324709 3.401398 3.362917 130.727400 5.109410 0.570011 
1.323888 3.401909 3.362550 130.706500 5.177238 0.630318 
1.323996 3.401693 3.362575 130.716200 5.191704 0.679090 
1.323753 3.401745 3.362344 130.724600 5.165473 0.687736 
1.324399 3.401491 3.362447 130.726900 5.128665 0.579847 
1.326086 3.400207 3.362315 130.840100 4.891570 0.599994 
1.325170 3.401023 3.362171 130.762900 5.066009 0.654614 
1.325494 3.401478 3.361876 130.783400 4.961535 0.586021 
1.325550 3.400901 3.362182 130.783400 5.025285 0.702318 
1.325664 3.400782 3.362548 130.780700 5.009438 0.673276 
1.325496 3.400828 3.362292 130.784200 5.049109 0.690646 
1.325128 3.400830 3.362399 130.789900 5.043980 0.690039 
1.324460 3.401857 3.362647 130.720700 5.120786 0.566495 
1.324572 3.401659 3.362583 130.756600 5.101233 0.616921 
1.325182 3.400614 3.362802 130.786500 5.009782 0.614868 
1.324725 3.401876 3.362718 130.740500 5.130998 0.537219 
1.324266 3.402207 3.362649 130.704600 5.164392 0.575641 
1.325266 3.400585 3.362533 130.780900 5.025042 0.696609 
1.325188 3.400956 3.362658 130.746700 5.052029 0.620186 
1.325320 3.401299 3.362718 130.757500 5.131562 0.691529 
1.326971 3.399989 3.362121 130.879700 4.919408 0.711268 
1.325294 3.401066 3.362242 130.767000 5.069134 0.650710 
1.324774 3.401835 3.362197 130.719600 5.175936 0.616099 
1.326187 3.400194 3.362132 130.854300 4.968254 0.702822 
1.323922 3.402006 3.361805 130.812800 5.187435 0.918157 
1.324442 3.402005 3.362355 130.711400 5.198094 0.608500 
1.324329 3.402033 3.362391 130.708200 5.201050 0.613545 
1.324535 3.402010 3.362419 130.712200 5.195742 0.609195 
1.325009 3.401498 3.362607 130.724300 5.130836 0.547584 
1.326555 3.399991 3.362549 130.848200 4.907480 0.607340 
1.325756 3.400478 3.362624 130.774900 4.997375 0.588361 
1.322508 3.404249 3.362223 130.706500 5.485289 0.941049 
1.322944 3.403186 3.361995 130.731400 5.338321 0.973356 
1.326372 3.400187 3.362391 130.853100 4.945756 0.686363 
1.326416 3.399892 3.362376 130.864300 4.928359 0.751619 
1.324682 3.401608 3.362607 130.713600 5.133337 0.538268 
1.324874 3.401607 3.362272 130.742300 5.156656 0.675899 
1.324655 3.401867 3.362195 130.715200 5.179955 0.622374 
1.324737 3.401897 3.362138 130.719000 5.181744 0.614435 
1.324962 3.401833 3.362111 130.735500 5.174545 0.629935 
1.325080 3.401853 3.362044 130.741100 5.178204 0.625932 
1.325539 3.401600 3.362163 130.766800 5.175630 0.685120 
1.325714 3.401422 3.362231 130.766600 5.161413 0.728258 
1.326454 3.400800 3.361975 130.810600 5.076308 0.735632 
1.326365 3.401097 3.361940 130.782200 5.098679 0.680393 
1.326206 3.401229 3.361721 130.764100 5.116959 0.673329 
1.326253 3.400893 3.361717 130.800300 5.070022 0.715310 
1.325364 3.401641 3.361810 130.741500 5.171861 0.670647 
1.326830 3.399921 3.361943 130.862500 4.981939 0.772563 
1.326675 3.399834 3.362132 130.853800 4.983194 0.780805 
1.326594 3.399819 3.362139 130.854400 4.979487 0.777584 
1.324880 3.401496 3.362341 130.718500 5.162143 0.680022 
1.325244 3.401142 3.362611 130.739500 5.124074 0.675158 
1.325338 3.401515 3.362177 130.728300 5.112244 0.636403 
1.327111 3.400329 3.361890 130.839300 4.939832 0.664077 
1.326982 3.400308 3.361586 130.839200 4.943415 0.667971 
1.326958 3.400059 3.361358 130.859200 4.924520 0.714621 
1.326882 3.399726 3.361261 130.874500 4.897019 0.727575 
1.326320 3.399657 3.361284 130.852800 4.909742 0.702468 
1.325419 3.400008 3.361399 130.827300 4.932255 0.669314 
1.325256 3.399701 3.361766 130.831700 4.900697 0.724337 
1.323988 3.400504 3.362356 130.774400 4.987776 0.637768 
1.324530 3.400280 3.362810 130.787600 4.964270 0.622520 
1.324063 3.400401 3.363131 130.769400 4.972278 0.634717 
1.324211 3.400514 3.363351 130.783800 4.977249 0.631221 
1.324344 3.400499 3.363873 130.782000 4.997652 0.658746 
1.324644 3.400505 3.364024 130.800400 4.980058 0.664888 
1.324762 3.400481 3.364188 130.798800 4.972682 0.675776 
1.324703 3.400590 3.364041 130.794000 4.978179 0.649058 
1.324834 3.400196 3.363984 130.793400 4.983282 0.680266 
1.324797 3.400105 3.363791 130.807400 4.961637 0.697632 
1.325031 3.399982 3.363608 130.834000 4.936381 0.669067 
1.324302 3.400060 3.363275 130.793300 4.947737 0.687969 
1.323908 3.400285 3.363069 130.779000 4.966428 0.625993 
1.323648 3.400049 3.362994 130.800000 4.955861 0.644080 
1.323272 3.399761 3.362894 130.772900 4.976405 0.699755 
1.323158 3.400136 3.362625 130.758900 5.019008 0.644239 
1.323279 3.400138 3.362380 130.778800 4.982902 0.591776 
1.323427 3.399842 3.362180 130.770400 4.999126 0.678725 
1.323401 3.399691 3.361956 130.777000 4.993945 0.693314 
1.323382 3.399630 3.361788 130.776800 4.999822 0.707420 
1.323324 3.399639 3.361638 130.777200 4.995499 0.698865 
1.323235 3.399610 3.361529 130.772400 5.002846 0.692404 
1.322832 3.399888 3.361571 130.752400 5.048259 0.667568 
1.322967 3.400080 3.361291 130.780100 4.982376 0.626177 
1.322531 3.399960 3.361509 130.753900 5.015827 0.642455 
1.322372 3.400118 3.361840 130.759800 5.026426 0.578508 
1.322794 3.399467 3.361706 130.785300 4.948025 0.659287 
1.322733 3.399587 3.361739 130.817100 4.928606 0.638889 
1.322581 3.399271 3.361946 130.823100 4.889054 0.627555 
1.321866 3.399380 3.362369 130.781300 4.950886 0.620658 
1.322037 3.399373 3.362184 130.812900 4.871785 0.624331 
1.321856 3.399096 3.362464 130.796600 4.920267 0.647268 
1.321533 3.398994 3.362350 130.777600 4.918656 0.663436 
1.321796 3.399217 3.362258 130.825700 4.899241 0.626259 
1.322017 3.399201 3.362500 130.797400 4.965367 0.680037 
1.322570 3.399480 3.362493 130.824200 4.978860 0.698141 
1.323132 3.399536 3.362727 130.806500 4.970554 0.675040 
1.323653 3.399639 3.362880 130.814000 4.966819 0.703142 
1.324031 3.399832 3.363177 130.816400 4.981654 0.687652 
1.324206 3.399933 3.363761 130.825700 4.988146 0.689442 
1.324104 3.400090 3.364343 130.844400 4.975512 0.732972 
1.323930 3.400461 3.364932 130.790600 5.024769 0.590408 
1.323958 3.400225 3.365323 130.816400 5.006277 0.635170 
1.323890 3.400419 3.365524 130.829100 4.975412 0.614334 
1.323962 3.400209 3.365787 130.823400 4.998739 0.668200 
1.324075 3.399987 3.365805 130.806500 5.044431 0.706027 
1.324373 3.400118 3.365571 130.808800 5.060905 0.683495 
1.324223 3.400890 3.365384 130.785100 5.109059 0.666441 
1.324406 3.400948 3.364984 130.779200 5.117822 0.667980 
1.324608 3.400969 3.364629 130.772600 5.117401 0.688906 
1.324442 3.401213 3.364147 130.749300 5.133125 0.634754 
1.324639 3.401165 3.363996 130.756500 5.134113 0.640636 
1.324486 3.401154 3.363956 130.758000 5.124065 0.626179 
1.324406 3.401142 3.363952 130.761600 5.128454 0.640978 
1.325363 3.400272 3.363680 130.820300 5.037313 0.735902 
1.324795 3.400506 3.363886 130.777900 5.077912 0.642202 
1.324775 3.400744 3.364228 130.791900 5.107506 0.736730 
1.324923 3.400567 3.364544 130.807500 5.079467 0.716029 
1.324393 3.401236 3.364420 130.782100 5.191132 0.806463 
1.323412 3.402831 3.364596 130.766700 5.339550 0.956042 
1.323068 3.403037 3.364889 130.752200 5.354682 0.890580 
1.323055 3.402626 3.365027 130.735500 5.349643 0.790397 
1.322829 3.402825 3.364757 130.724100 5.338544 0.750820 
1.324226 3.401728 3.364618 130.764500 5.213604 0.801912 
1.323999 3.402286 3.364486 130.754500 5.278368 0.880414 
1.324123 3.402021 3.364643 130.809200 5.243571 0.934139 
1.323593 3.402716 3.364486 130.789900 5.324768 0.987620 
1.324100 3.402201 3.364528 130.796800 5.262955 0.925046 
1.324092 3.401960 3.364534 130.801000 5.230550 0.908393 
1.324160 3.402155 3.364422 130.793600 5.257519 0.940585 
1.323995 3.402441 3.364312 130.775100 5.279145 0.899208 
1.324208 3.402187 3.364462 130.792600 5.260328 0.947555 
1.324257 3.401836 3.364633 130.778600 5.215548 0.829797 
1.324589 3.401496 3.364629 130.780500 5.175017 0.766955 
1.324175 3.401803 3.364796 130.761600 5.215117 0.755211 
1.324393 3.401398 3.364753 130.795300 5.172530 0.760759 
1.323516 3.402056 3.364885 130.765300 5.284086 0.794066 
1.324055 3.401598 3.364968 130.790300 5.195881 0.767853 
1.323493 3.402149 3.364679 130.757400 5.252694 0.828377 
1.323380 3.402224 3.364261 130.759800 5.262011 0.802337 
1.323599 3.402195 3.364198 130.747200 5.277841 0.836961 
1.324162 3.401700 3.363995 130.766700 5.220041 0.853914 
1.324770 3.401332 3.363691 130.768800 5.178067 0.814139 
1.325108 3.401297 3.363379 130.755000 5.184681 0.826849 
1.324951 3.401631 3.363166 130.734600 5.171124 0.715163 
1.325253 3.401390 3.363020 130.699400 5.169438 0.725077 
1.323773 3.403293 3.362303 130.607700 5.413505 0.862611 
1.325102 3.402346 3.360575 130.593700 5.306363 0.761432 
1.326848 3.402255 3.357635 130.722700 5.363639 0.756489 
1.330038 3.401457 3.353679 131.028000 5.286524 0.774671 
1.333101 3.401139 3.347726 131.337400 5.241818 0.792367 
1.336692 3.401295 3.341135 131.621100 5.205369 0.778438 
1.339249 3.401015 3.334971 131.747000 5.218490 0.816333 
1.340905 3.400580 3.328134 131.869000 5.250007 0.826717 
1.342252 3.399925 3.322564 131.929900 5.232800 0.860305 
1.342992 3.399025 3.318142 132.075900 5.291485 0.921073 
1.343704 3.399493 3.313851 132.157100 5.340886 0.798688 
1.344619 3.398597 3.310482 132.299700 5.229484 0.803677 
1.344425 3.399436 3.307271 132.329200 5.381813 0.786657 
1.345077 3.399435 3.303375 132.531000 5.209176 0.764647 
1.345555 3.398838 3.299927 132.676700 5.181310 0.758436 
1.345937 3.398889 3.296265 132.755200 5.199489 0.773392 
1.346584 3.398212 3.293032 132.898100 5.131863 0.733137 
1.346334 3.398188 3.289088 133.027600 5.186778 0.725647 
1.346488 3.398355 3.285242 133.131900 5.242080 0.726003 
